<?xml version="1.0" encoding="UTF-8" standalone="no"?>
<!-- Created with Inkscape (http://www.inkscape.org/) -->

<svg
   width="1920"
   height="1080"
   viewBox="0 0 1920 1080"
   version="1.1"
   id="svg1"
   sodipodi:docname="linked_list.svg"
   inkscape:version="1.3.2 (091e20ef0f, 2023-11-25, custom)"
   xmlns:inkscape="http://www.inkscape.org/namespaces/inkscape"
   xmlns:sodipodi="http://sodipodi.sourceforge.net/DTD/sodipodi-0.dtd"
   xmlns="http://www.w3.org/2000/svg"
   xmlns:svg="http://www.w3.org/2000/svg">
  <sodipodi:namedview
     id="namedview1"
     pagecolor="#ffffff"
     bordercolor="#000000"
     borderopacity="0.25"
     inkscape:showpageshadow="2"
     inkscape:pageopacity="0.0"
     inkscape:pagecheckerboard="0"
     inkscape:deskcolor="#d1d1d1"
     inkscape:document-units="px"
     inkscape:zoom="1.0149929"
     inkscape:cx="927.59273"
     inkscape:cy="557.63939"
     inkscape:window-width="3836"
     inkscape:window-height="2075"
     inkscape:window-x="0"
     inkscape:window-y="27"
     inkscape:window-maximized="1"
     inkscape:current-layer="layer1" />
  <defs
     id="defs1" />
  <g
     inkscape:label="Layer 1"
     inkscape:groupmode="layer"
     id="layer1">
    <rect
       style="fill:#f2f2f2;stroke-width:1.85063"
       id="rect1"
       width="449.29886"
       height="855.18604"
       x="15.936851"
       y="111.54251" />
    <rect
       style="fill:#02ff00;fill-opacity:0.33"
       id="rect3"
       width="447.33612"
       height="439.41293"
       x="15.994567"
       y="117.45243" />
    <rect
       style="fill:#ff003d;fill-opacity:0.33"
       id="rect4"
       width="453.2244"
       height="409.86328"
       x="13.974082"
       y="556.86536" />
    <text
       xml:space="preserve"
       style="font-size:85.3333px;white-space:pre;inline-size:205.882;display:inline;fill:#010000;fill-opacity:1"
       x="126.31323"
       y="363.7757"
       id="text4"
       transform="matrix(1.7164519,0,0,1.7164519,-150.22192,-232.45184)"><tspan
         x="126.31323"
         y="363.7757"
         id="tspan3">value</tspan></text>
    <text
       xml:space="preserve"
       style="font-size:145.249px;fill:#010000;fill-opacity:1;stroke-width:1.70214"
       x="92.562248"
       y="831.32776"
       id="text5"><tspan
         sodipodi:role="line"
         id="tspan5"
         x="92.562248"
         y="831.32776"
         style="stroke-width:1.70214">next</tspan></text>
    <rect
       style="fill:#f2f2f2;stroke-width:1.85063"
       id="rect1-5"
       width="449.29886"
       height="855.18604"
       x="696.01678"
       y="113.15842" />
    <rect
       style="fill:#02ff00;fill-opacity:0.33"
       id="rect3-3"
       width="447.33612"
       height="439.41293"
       x="696.07452"
       y="119.06834" />
    <rect
       style="fill:#ff003d;fill-opacity:0.33"
       id="rect4-5"
       width="453.2244"
       height="409.86328"
       x="694.05402"
       y="558.48126" />
    <text
       xml:space="preserve"
       style="font-size:85.3333px;white-space:pre;inline-size:205.882;display:inline;fill:#010000;fill-opacity:1"
       x="126.31323"
       y="363.7757"
       id="text4-6"
       transform="matrix(1.7164519,0,0,1.7164519,529.85798,-230.83592)"><tspan
         x="126.31323"
         y="363.7757"
         id="tspan4">value</tspan></text>
    <text
       xml:space="preserve"
       style="font-size:145.249px;fill:#010000;fill-opacity:1;stroke-width:1.70214"
       x="772.64215"
       y="832.94366"
       id="text5-2"><tspan
         sodipodi:role="line"
         id="tspan5-9"
         x="772.64215"
         y="832.94366"
         style="stroke-width:1.70214">next</tspan></text>
    <rect
       style="fill:#f2f2f2;stroke-width:1.85063"
       id="rect1-5-2"
       width="449.29886"
       height="855.18604"
       x="1338.2687"
       y="115.60957" />
    <rect
       style="fill:#02ff00;fill-opacity:0.33"
       id="rect3-3-2"
       width="447.33612"
       height="439.41293"
       x="1338.3264"
       y="121.51948" />
    <rect
       style="fill:#ff003d;fill-opacity:0.33"
       id="rect4-5-8"
       width="453.2244"
       height="409.86328"
       x="1336.3059"
       y="560.93243" />
    <text
       xml:space="preserve"
       style="font-size:85.3333px;white-space:pre;inline-size:205.882;display:inline;fill:#010000;fill-opacity:1"
       x="126.31323"
       y="363.7757"
       id="text4-6-9"
       transform="matrix(1.7164519,0,0,1.7164519,1172.1099,-228.38478)"><tspan
         x="126.31323"
         y="363.7757"
         id="tspan7">value</tspan></text>
    <text
       xml:space="preserve"
       style="font-size:145.249px;fill:#010000;fill-opacity:1;stroke-width:1.70214"
       x="1414.894"
       y="835.39484"
       id="text5-2-7"><tspan
         sodipodi:role="line"
         id="tspan5-9-3"
         x="1414.894"
         y="835.39484"
         style="stroke-width:1.70214">next</tspan></text>
    <path
       style="fill:#ff0000;fill-opacity:1"
       id="path6"
       d="m 464.2144,791.79561 c 5.6572,-0.0841 11.40916,0.004 16.97904,-1.19154 2.37939,-0.51066 4.81026,-0.99494 7.0129,-2.02965 2.8801,-1.35296 5.97779,-2.68685 8.09122,-5.06568 3.85429,-4.33832 6.27855,-9.76145 9.41783,-14.64217 3.03055,-8.43463 6.44768,-16.74022 9.09166,-25.3039 5.4849,-17.76522 11.07547,-42.7329 14.80918,-60.89471 6.48444,-31.54217 11.54553,-63.38072 16.98106,-95.11363 11.03316,-65.55758 25.07453,-130.54478 37.74668,-195.79026 1.88005,-10.2445 3.83597,-20.47538 5.64016,-30.73351 3.0909,-17.57414 6.01477,-35.35303 8.26682,-53.06337 2.72916,-21.46244 4.27826,-43.03484 5.98166,-64.59416 1.84992,-21.36809 2.07218,-42.81918 2.87906,-64.2369 0.53018,-14.07287 0.6694,-14.40697 1.66017,-28.38282 0.53976,-5.00418 2.21063,-21.87327 3.33686,-27.02573 2.34348,-10.72132 5.87052,-19.9617 10.89507,-29.736485 2.55269,-4.966007 5.23437,-9.906237 8.50858,-14.42917 3.61679,-4.996158 8.0548,-9.342985 12.0822,-14.014477 5.09621,-4.360796 9.92638,-9.053222 15.28863,-13.082386 16.61262,-12.482625 35.29483,-21.827226 54.90978,-28.53062 13.83296,-4.727401 21.51933,-6.126852 35.46587,-9.312251 20.15656,-3.959326 40.73126,-5.7703596 61.26968,-5.760638 3.15718,0.00149 6.31276,0.1424057 9.46915,0.2136085 9.73722,0.6844976 19.76477,1.3418825 28.99605,4.8296365 4.05609,1.532468 5.75862,2.730146 9.40315,4.87426 -2.9718,-1.536013 -5.72639,-3.59754 -8.9154,-4.608039 -1.26126,-0.399654 1.9747,1.763872 2.90585,2.7038 3.8502,3.886514 6.80418,8.338237 9.56376,13.028839 4.01177,7.308954 7.89729,14.722505 11.03337,22.455052 2.52902,5.573681 4.82271,11.211767 6.22289,17.178424 0.88494,4.172883 1.00143,8.442701 1.05761,12.690984 0.072,3.922722 0.1012,7.807244 -0.53075,11.684356 -0.14583,2.419111 -1.33085,4.571319 -1.91297,6.880526 -0.41672,1.65308 -0.55647,2.9558 -0.79959,4.64873 -0.24056,1.53959 -0.19086,6.82652 -2.52546,7.07866 -1.53109,0.16536 -4.97198,-1.51496 -5.89428,-1.88968 2.51765,1.40043 4.67637,4.04305 7.55296,4.20129 2.40841,0.13249 -4.02098,-2.66974 -5.95337,-4.1133 -7.77109,-5.80526 -14.56918,-12.727583 -21.07256,-19.885516 1.03949,-1.032536 -3.11032,-2.665869 -2.73937,-4.334252 0.0509,-0.228804 0.31563,0.353422 0.51074,0.483316 0.68899,0.458703 1.41013,0.867908 2.13069,1.275238 1.16997,0.661383 4.70238,2.604604 3.53981,1.930292 -2.85912,-1.658347 -5.75347,-3.255211 -8.63021,-4.882817 8.31756,5.119302 15.2566,12.066958 22.11685,18.936889 8.4331,8.65171 19.14527,13.6899 29.63307,19.45654 1.34401,-0.29576 2.7282,-0.44699 4.03203,-0.88729 5.21473,-1.76099 9.85552,-5.08604 14.36139,-8.13153 5.06071,-3.4205 4.13686,-2.80451 8.94542,-6.21221 6.53559,-5.15667 13.62107,-9.657094 19.67117,-15.39458 2.9135,-2.719213 1.523,-1.253064 4.154,-4.415049 0,0 -12.753,-7.665186 -12.753,-7.665186 v 0 c -2.557,3.003079 -1.20759,1.575431 -4.04598,4.285079 -5.99047,5.67956 -12.98823,10.167688 -19.44114,15.294666 -4.52501,3.24022 -9.05202,6.59153 -13.83586,9.44611 -2.30576,1.37588 -6.39549,3.61543 -9.16297,4.25113 -1.16808,0.26831 -2.39401,0.11971 -3.59102,0.17957 3.36304,2.03314 6.74132,4.04126 10.08911,6.09941 0.86438,0.5314 -1.77724,-0.98158 -2.63809,-1.51868 -4.21778,-2.63155 -8.21548,-5.62776 -11.75548,-9.1265 -6.88305,-6.91165 -13.79528,-13.954104 -22.01529,-19.292683 -5.55904,-3.226667 -11.07715,-6.524891 -16.67711,-9.680002 -1.41155,-0.795294 -6.83349,-4.304853 -8.14176,-0.959147 -0.65026,1.66293 2.48234,4.824826 2.75565,5.196326 4.84914,5.376343 9.83226,10.633776 15.25729,15.443346 8.86279,7.85731 18.72032,13.80391 29.3844,19.11301 2.50185,0.72052 4.32756,1.8234 6.8913,0.763 2.92849,-1.21127 2.69457,-5.59687 3.05373,-8.08206 0.21607,-1.56863 0.35015,-2.87403 0.72936,-4.4052 0.58935,-2.3797 1.82946,-4.58702 1.99239,-7.07309 0.16097,-0.92437 0.56388,-3.105506 0.63239,-4.036567 0.19241,-2.614875 -0.10728,-5.266704 0.0212,-7.88473 -0.0408,-4.345896 -0.12599,-8.71341 -0.95863,-12.994843 -1.32771,-6.059269 -3.52573,-11.825587 -6.19976,-17.420805 -3.03098,-7.842193 -7.0762,-15.244634 -10.99455,-22.669916 -2.68561,-4.821121 -5.60342,-9.344785 -9.37786,-13.402574 -0.92618,-0.995715 -1.75176,-2.128606 -2.87653,-2.892909 -5.2761,-3.585213 -10.83429,-6.736618 -16.25143,-10.1049278 -3.85192,-2.1062995 -5.26547,-3.07611 -9.53844,-4.552316 -9.3057,-3.2148851 -19.28782,-3.7880859 -29.02442,-4.36408126 -3.15434,-0.045002 -6.30844,-0.1566701 -9.46303,-0.1350059 -20.46389,0.1405362 -40.95425,2.11208356 -60.98793,6.31564486 -13.69203,3.2876571 -21.77953,4.8974431 -35.35354,9.6254681 -19.78357,6.890903 -38.37824,16.293888 -55.17776,28.89333 -5.42803,4.070964 -10.33484,8.794114 -15.50226,13.19117 -4.11008,4.718711 -8.64361,9.099683 -12.33026,14.156133 -3.32051,4.554273 -6.00769,9.553341 -8.60376,14.5561 -4.8954,9.433666 -8.97321,19.555689 -11.31067,29.957589 -0.97195,4.32521 -2.87282,23.01819 -3.3208,27.14012 -0.817,11.54954 -1.29827,16.83815 -1.68588,28.44346 -0.1582,4.73676 -0.14684,9.47781 -0.26573,14.21573 -0.4197,16.72581 -1.14342,33.4437 -2.23294,50.13971 -0.78213,11.36817 -2.00405,29.96788 -3.0179,41.0021 -3.32419,36.17867 -9.111,72.06981 -15.84147,107.75692 -2.0891,10.80987 -4.12864,21.62943 -6.26729,32.42961 -4.37517,22.09469 -9.06923,44.12547 -13.44076,66.22089 -6.39298,32.31266 -12.53983,64.68393 -18.05856,97.15792 -1.88342,10.80355 -3.77719,21.60529 -5.65025,32.41064 -4.30276,24.8219 -6.29752,37.86823 -11.40103,62.5993 -3.88018,18.80293 -9.06049,42.2514 -15.05438,60.55547 -2.74491,8.38238 -6.39175,16.44205 -9.58762,24.66308 -3.20243,4.59998 -5.73537,9.74734 -9.60728,13.79995 -2.13251,2.23204 -5.17967,3.4177 -8.01316,4.64284 -2.19465,0.94891 -4.58923,1.37353 -6.93788,1.82162 -5.62797,1.07375 -11.41404,0.91053 -17.10733,0.87645 z" />
    <path
       style="fill:#ff0000;fill-opacity:1"
       id="path6-1"
       d="m 1150.0068,798.98913 c 5.6572,-0.0841 11.4092,0.004 16.979,-1.19154 2.3794,-0.51066 4.8103,-0.99494 7.0129,-2.02965 2.8801,-1.35296 5.9778,-2.68685 8.0913,-5.06568 3.8543,-4.33832 6.2785,-9.76145 9.4178,-14.64217 3.0305,-8.43463 6.4477,-16.74022 9.0917,-25.3039 5.4849,-17.76522 11.0754,-42.7329 14.8091,-60.89471 6.4845,-31.54217 11.5456,-63.38072 16.9811,-95.11363 11.0332,-65.55758 25.0745,-130.54478 37.7467,-195.79026 1.88,-10.2445 3.8359,-20.47538 5.6401,-30.73351 3.0909,-17.57414 6.0148,-35.35303 8.2669,-53.06337 2.7291,-21.46244 4.2782,-43.03484 5.9816,-64.59416 1.8499,-21.36809 2.0722,-42.81918 2.8791,-64.2369 0.5302,-14.07287 0.6694,-14.40697 1.6601,-28.38282 0.5398,-5.00418 2.2107,-21.87327 3.3369,-27.02573 2.3435,-10.72132 5.8705,-19.9617 10.8951,-29.73649 2.5527,-4.966005 5.2343,-9.906235 8.5086,-14.429168 3.6167,-4.996158 8.0548,-9.342985 12.0822,-14.014477 5.0962,-4.360796 9.9263,-9.053222 15.2886,-13.082386 16.6126,-12.482625 35.2948,-21.827226 54.9098,-28.53062 13.8329,-4.727401 21.5193,-6.126852 35.4658,-9.312251 20.1566,-3.959326 40.7313,-5.77036 61.2697,-5.760638 3.1572,0.0015 6.3128,0.142405 9.4692,0.213608 9.7372,0.684498 19.7647,1.341882 28.996,4.829637 4.0561,1.532468 5.7586,2.730146 9.4032,4.87426 -2.9718,-1.536013 -5.7264,-3.59754 -8.9154,-4.60804 -1.2613,-0.399653 1.9747,1.763873 2.9058,2.703801 3.8502,3.886514 6.8042,8.338237 9.5638,13.028839 4.0117,7.308954 7.8973,14.722505 11.0333,22.455052 2.5291,5.573681 4.8228,11.211767 6.2229,17.178424 0.885,4.172883 1.0015,8.442701 1.0576,12.690984 0.072,3.922722 0.1012,7.807244 -0.5307,11.684355 -0.1458,2.41911 -1.3309,4.57132 -1.913,6.88053 -0.4167,1.65308 -0.5564,2.9558 -0.7996,4.64873 -0.2405,1.53959 -0.1908,6.82652 -2.5254,7.07866 -1.5311,0.16536 -4.972,-1.51496 -5.8943,-1.88968 2.5176,1.40043 4.6764,4.04305 7.553,4.20129 2.4084,0.13249 -4.021,-2.66974 -5.9534,-4.1133 -7.7711,-5.80526 -14.5692,-12.72759 -21.0726,-19.885519 1.0395,-1.032536 -3.1103,-2.665869 -2.7393,-4.334252 0.051,-0.228804 0.3156,0.353422 0.5107,0.483316 0.689,0.458703 1.4101,0.867908 2.1307,1.275238 1.17,0.661383 4.7024,2.604604 3.5398,1.930292 -2.8591,-1.658347 -5.7535,-3.255211 -8.6302,-4.882817 8.3175,5.119302 15.2566,12.066962 22.1168,18.936882 8.4331,8.65172 19.1453,13.68991 29.6331,19.45655 1.344,-0.29576 2.7282,-0.44699 4.032,-0.88729 5.2148,-1.76099 9.8556,-5.08604 14.3614,-8.13153 5.0607,-3.4205 4.1369,-2.80451 8.9454,-6.21221 6.5356,-5.15667 13.6211,-9.65709 19.6712,-15.39458 2.9135,-2.719216 1.523,-1.253067 4.154,-4.415052 0,0 -12.753,-7.665186 -12.753,-7.665186 v 0 c -2.557,3.003079 -1.2076,1.575431 -4.046,4.285079 -5.9904,5.67956 -12.9882,10.167689 -19.4411,15.294669 -4.525,3.24021 -9.052,6.59153 -13.8359,9.44611 -2.3057,1.37588 -6.3955,3.61543 -9.1629,4.25113 -1.1681,0.26831 -2.394,0.11971 -3.5911,0.17957 3.3631,2.03314 6.7414,4.04126 10.0892,6.09941 0.8643,0.5314 -1.7773,-0.98158 -2.6381,-1.51868 -4.2178,-2.63155 -8.2155,-5.62776 -11.7555,-9.1265 -6.8831,-6.91165 -13.7953,-13.95411 -22.0153,-19.292686 -5.559,-3.226667 -11.0772,-6.524891 -16.6771,-9.680002 -1.4116,-0.795294 -6.8335,-4.304853 -8.1418,-0.959147 -0.6502,1.66293 2.4824,4.824826 2.7557,5.196326 4.8491,5.376343 9.8322,10.633779 15.2573,15.443349 8.8628,7.85731 18.7203,13.80391 29.3844,19.11301 2.5018,0.72052 4.3275,1.8234 6.8913,0.763 2.9285,-1.21127 2.6945,-5.59687 3.0537,-8.08206 0.2161,-1.56863 0.3501,-2.87403 0.7294,-4.4052 0.5893,-2.3797 1.8294,-4.58702 1.9923,-7.07309 0.161,-0.92437 0.5639,-3.10551 0.6324,-4.03657 0.1924,-2.61487 -0.1072,-5.266704 0.021,-7.88473 -0.041,-4.345896 -0.126,-8.71341 -0.9586,-12.994843 -1.3277,-6.059269 -3.5257,-11.825587 -6.1998,-17.420805 -3.0309,-7.842193 -7.0762,-15.244634 -10.9945,-22.669916 -2.6856,-4.821121 -5.6034,-9.344785 -9.3779,-13.402574 -0.9261,-0.995715 -1.7517,-2.128606 -2.8765,-2.892909 -5.2761,-3.585213 -10.8343,-6.736619 -16.2514,-10.104928 -3.8519,-2.106299 -5.2655,-3.07611 -9.5385,-4.552316 -9.3057,-3.2148845 -19.2878,-3.7880855 -29.0244,-4.3640815 -3.1543,-0.045 -6.3084,-0.15667 -9.463,-0.135006 -20.4639,0.140537 -40.9543,2.112084 -60.9879,6.3156455 -13.6921,3.287656 -21.7796,4.897443 -35.3536,9.625468 -19.7836,6.890903 -38.3782,16.293888 -55.1777,28.89333 -5.4281,4.070964 -10.3349,8.794114 -15.5023,13.19117 -4.1101,4.718711 -8.6436,9.099683 -12.3303,14.156133 -3.3205,4.554273 -6.0077,9.553341 -8.6037,14.5561 -4.8954,9.433662 -8.9732,19.555692 -11.3107,29.957592 -0.9719,4.32521 -2.8728,23.01819 -3.3208,27.14012 -0.817,11.54954 -1.2983,16.83815 -1.6859,28.44346 -0.1582,4.73676 -0.1468,9.47781 -0.2657,14.21573 -0.4197,16.72581 -1.1434,33.4437 -2.2329,50.13971 -0.7822,11.36817 -2.0041,29.96788 -3.0179,41.0021 -3.3242,36.17867 -9.111,72.06981 -15.8415,107.75692 -2.0891,10.80987 -4.1287,21.62943 -6.2673,32.42961 -4.3752,22.09469 -9.0692,44.12547 -13.4408,66.22089 -6.3929,32.31266 -12.5398,64.68393 -18.0585,97.15792 -1.8834,10.80355 -3.7772,21.60529 -5.6503,32.41064 -4.3027,24.8219 -6.2975,37.86823 -11.401,62.5993 -3.8802,18.80293 -9.0605,42.2514 -15.0544,60.55547 -2.7449,8.38238 -6.3917,16.44205 -9.5876,24.66308 -3.2024,4.59998 -5.7354,9.74734 -9.6073,13.79995 -2.1325,2.23204 -5.1797,3.4177 -8.0131,4.64284 -2.1947,0.94891 -4.5893,1.37353 -6.9379,1.82162 -5.628,1.07375 -11.4141,0.91053 -17.1074,0.87645 z" />
    <text
       xml:space="preserve"
       style="font-size:123.519px;fill:#ff0000;fill-opacity:1;stroke-width:1.44748"
       x="16.879539"
       y="106.08287"
       id="text6"
       transform="scale(1.0121392,0.9880064)"><tspan
         sodipodi:role="line"
         id="tspan6"
         x="16.879539"
         y="106.08287"
         style="fill:#ff0000;fill-opacity:1;stroke-width:1.44748">head</tspan></text>
    <path
       style="fill:#ff0000;fill-opacity:1"
       id="path7"
       d="m 1557.8667,939.51156 c -0.6454,6.70796 -1.9871,13.34227 -3.4083,19.92531 -1.3359,6.38011 -1.8217,12.88659 -2.6446,19.34322 -0.8362,6.18632 -1.2678,12.41655 -1.5234,18.65081 0,3.7555 -0.598,7.6471 0.5844,11.3005 0.2969,0.9171 0.7309,1.7839 1.0964,2.6759 3.0751,5.4839 7.9424,9.2491 13.3376,12.306 17.9748,10.1843 12.0054,7.6926 23.5706,11.884 8.2188,2.6287 16.5437,4.807 25.0996,5.9595 3.6749,0.5492 7.3315,0.1149 10.9126,-0.7327 0,0 -12.2546,-8.5167 -12.2546,-8.5167 v 0 c -3.5009,0.6574 -7.0285,0.9438 -10.5719,0.3375 -8.4231,-1.2265 -16.6439,-3.3931 -24.7198,-6.0774 -10.0299,-3.8934 -4.6955,-2.2414 1.6431,2.4352 1.5341,1.1318 -3.3388,-1.8498 -4.9253,-2.9068 -3.4201,-2.2785 -6.2956,-5.0447 -8.5451,-8.4856 -0.3909,-0.809 -0.8489,-1.589 -1.1727,-2.4271 -1.3522,-3.4997 -0.7742,-7.2848 -0.7891,-10.9324 0.1952,-6.20431 0.5605,-12.4071 1.3933,-18.56279 0.8473,-6.41467 1.3534,-12.87329 2.6012,-19.22822 1.4086,-6.61841 2.7346,-13.27035 3.5686,-19.98741 z" />
    <path
       style="fill:#ff0000;fill-opacity:1"
       id="path8"
       d="m 1625.4145,1025.5709 c 0.9856,0.4913 1.9786,0.9679 2.9567,1.4738 2.7382,1.4161 5.4947,2.7971 8.2162,4.2449 1.3096,0.6967 5.1793,2.8947 3.8766,2.1852 -10.0456,-5.4707 -12.206,-7.6041 -7.1173,-3.2224 0.3107,0.5837 0.8046,1.1022 0.9323,1.751 0.7189,3.6517 -6.332,7.2077 -8.6987,8.5732 -4.9948,3.0508 -10.1093,5.8869 -15.1987,8.7727 0,0 12.5049,8.1361 12.5049,8.1361 v 0 c 5.0924,-2.8756 10.1438,-5.8157 15.161,-8.821 3.4308,-2.0256 7.414,-4.0897 9.1351,-7.9421 0.3448,-0.7718 0.6728,-1.6031 0.6607,-2.4483 -0.012,-0.8316 -0.487,-1.5905 -0.7304,-2.3858 -6.5925,-6.4691 -1.7733,-2.0902 -18.1433,-11.6893 -4.9432,-2.8985 -10.2116,-5.2109 -15.1908,-8.0461 z" />
    <text
       xml:space="preserve"
       style="font-size:85.3333px;fill:#ff0000;fill-opacity:1"
       x="1655.3611"
       y="1059.3289"
       id="text11"><tspan
         sodipodi:role="line"
         id="tspan11"
         x="1655.3611"
         y="1059.3289">NULL</tspan></text>
  </g>
</svg>
